<?xml version="1.0" standalone="no"?>
<!DOCTYPE svg PUBLIC "-//W3C//DTD SVG 20010904//EN"
 "http://www.w3.org/TR/2001/REC-SVG-20010904/DTD/svg10.dtd">
<svg version="1.0" xmlns="http://www.w3.org/2000/svg"
 width="915.000000pt" height="915.000000pt" viewBox="0 0 915.000000 915.000000"
 preserveAspectRatio="xMidYMid meet">
<metadata>
Created by potrace 1.14, written by Peter Selinger 2001-2017
</metadata>
<g transform="translate(0.000000,915.000000) scale(0.100000,-0.100000)"
fill="#000000" stroke="none">
<path d="M1795 6339 c-366 -40 -661 -219 -827 -502 -161 -275 -200 -673 -97
-981 144 -430 537 -710 1009 -717 154 -3 352 42 435 98 29 20 51 16 96 -16 85
-62 236 -84 323 -47 123 52 232 187 317 394 l26 64 32 -89 c66 -187 190 -341
321 -400 85 -38 202 -55 275 -39 56 12 84 21 125 39 218 99 392 338 469 642
21 85 24 104 26 245 3 161 -14 273 -61 397 -14 38 -28 75 -30 83 -4 13 8 15
78 13 87 -2 222 22 293 51 20 9 41 16 45 16 3 0 7 -71 7 -157 0 -87 3 -187 6
-223 42 -412 171 -694 359 -783 60 -29 89 -35 163 -36 45 -1 52 -4 73 -35 49
-72 129 -142 214 -189 209 -115 452 -90 676 70 56 39 219 195 257 245 72 92
115 153 115 162 0 6 20 -25 43 -69 144 -275 318 -401 537 -391 245 11 430 173
534 466 15 41 29 81 32 89 3 9 18 -12 38 -52 99 -197 246 -326 404 -355 65
-12 173 -5 189 11 15 15 45 181 36 203 -4 10 -23 14 -67 13 -117 -1 -206 44
-278 141 -38 51 -76 124 -109 208 -29 73 -102 320 -112 378 -3 16 -12 63 -21
104 -8 41 -20 102 -26 135 -5 33 -12 71 -15 85 -2 14 -11 67 -19 119 -8 52
-19 98 -25 104 -10 10 -190 -17 -221 -33 -17 -9 -18 -23 -6 -85 3 -16 9 -52
12 -80 3 -27 8 -61 11 -75 2 -14 6 -124 8 -245 6 -315 -22 -499 -100 -660 -68
-143 -168 -220 -285 -220 -57 0 -72 4 -118 33 -127 83 -247 322 -301 604 -29
148 -31 168 -37 328 -4 80 -7 146 -8 147 -2 3 -36 8 -139 23 -76 12 -90 11
-98 -1 -5 -8 -7 -85 -4 -174 4 -167 7 -189 31 -320 9 -44 17 -87 18 -95 3 -15
-12 -46 -48 -105 -241 -384 -482 -567 -691 -523 -110 23 -209 109 -275 238
-84 165 -89 467 -9 639 93 201 263 267 517 200 122 -33 117 -33 129 -7 6 13
25 61 43 107 35 96 34 100 -40 124 -126 42 -319 62 -425 43 -258 -44 -451
-247 -511 -537 -24 -120 -27 -348 -5 -443 7 -27 10 -51 8 -53 -9 -8 -76 80
-100 131 -67 141 -110 381 -111 616 0 124 12 257 29 320 8 30 15 60 15 67 0
17 -158 143 -180 143 -10 0 -57 -25 -105 -55 -140 -88 -260 -123 -383 -112
-107 10 -153 23 -244 68 -31 16 -63 26 -70 23 -19 -8 -138 -163 -138 -180 0
-8 22 -42 48 -77 99 -128 169 -277 189 -406 9 -59 10 -254 1 -306 -22 -127
-97 -299 -163 -371 -5 -7 -21 -26 -35 -44 -48 -62 -158 -124 -230 -131 -69 -7
-159 42 -211 113 -57 79 -122 246 -144 373 -30 164 -38 263 -39 462 -1 100 -3
184 -6 186 -3 3 -36 8 -75 12 -38 3 -86 8 -105 10 -36 5 -63 -5 -59 -21 2 -5
-1 -34 -5 -64 -4 -30 -10 -71 -13 -90 -2 -19 -7 -48 -9 -65 -3 -16 -7 -41 -9
-55 -8 -54 -37 -189 -61 -280 -14 -52 -27 -102 -29 -110 -9 -39 -61 -172 -92
-235 -93 -187 -168 -224 -264 -131 -48 47 -107 173 -124 263 -3 16 -7 39 -10
53 -19 91 -26 180 -27 325 0 134 9 257 27 366 4 21 2 40 -3 43 -26 16 -219 23
-233 9 -31 -31 -53 -415 -36 -618 12 -132 37 -256 74 -359 14 -37 21 -72 16
-76 -34 -31 -207 -71 -307 -71 -430 0 -778 299 -823 706 -12 109 -7 266 12
355 2 14 7 34 9 45 10 50 69 185 104 238 77 114 162 191 283 255 143 76 279
110 435 106 117 -2 146 -7 239 -39 39 -13 73 -20 77 -17 3 4 18 36 33 72 15
36 33 78 41 94 18 37 6 59 -44 79 -126 51 -313 73 -467 56z"/>
<path d="M7019 4902 c-118 -61 -94 -238 36 -259 102 -17 183 75 155 177 -21
77 -118 119 -191 82z"/>
<path d="M2552 4844 c-74 -52 -59 -160 28 -192 82 -30 165 69 124 149 -28 55
-104 77 -152 43z"/>
<path d="M3597 4846 c-70 -25 -107 -78 -107 -152 0 -153 215 -210 292 -77 75
128 -47 278 -185 229z"/>
<path d="M5717 4846 c-129 -47 -165 -207 -68 -301 146 -142 374 23 291 210
-32 74 -144 119 -223 91z"/>
<path d="M6868 3638 c-169 -22 -276 -141 -253 -280 19 -112 83 -162 265 -208
47 -11 106 -28 131 -36 117 -38 74 -142 -58 -142 -67 1 -116 21 -134 54 -7 13
-22 27 -33 30 -27 9 -171 8 -185 0 -28 -18 6 -114 57 -163 88 -84 274 -117
431 -76 105 28 195 110 207 190 22 149 -46 235 -221 279 -200 49 -245 70 -245
113 0 27 31 60 65 70 47 13 121 -10 153 -48 l27 -32 95 3 c95 3 95 3 98 30 2
14 -6 44 -16 65 -59 114 -213 175 -384 151z"/>
<path d="M1948 3632 c-16 -2 -29 -9 -29 -15 -1 -7 -2 -185 -3 -396 -1 -310 1
-387 12 -398 9 -9 40 -13 92 -13 65 0 81 3 88 18 5 9 9 108 9 220 0 111 2 204
4 206 2 3 33 -50 69 -116 63 -119 80 -137 124 -132 11 1 31 3 42 3 17 1 36 29
90 129 l69 127 5 -225 c3 -124 7 -226 8 -227 6 -8 169 -1 181 6 12 8 14 75 15
397 1 259 -3 392 -10 402 -7 10 -32 14 -89 15 -66 0 -81 -3 -94 -20 -9 -10
-59 -97 -111 -191 -52 -95 -98 -172 -101 -172 -3 0 -48 76 -100 170 -52 93
-101 179 -109 190 -13 17 -28 21 -75 23 -33 1 -72 1 -87 -1z"/>
<path d="M3388 3620 c-9 -8 -74 -170 -143 -360 -69 -190 -133 -362 -141 -384
-22 -57 -10 -66 96 -66 l88 0 20 44 c12 24 24 55 27 69 4 14 12 27 18 29 7 2
77 4 157 4 l144 -1 26 -60 c37 -89 31 -85 131 -85 72 0 91 3 96 16 5 13 -54
194 -87 269 -5 11 -48 129 -96 263 -48 134 -93 250 -99 259 -17 22 -211 25
-237 3z m177 -367 c24 -68 43 -124 42 -124 -7 -5 -199 -3 -202 2 -3 4 62 205
91 279 7 18 7 17 69 -157z"/>
<path d="M4306 3625 c-21 -10 -21 -17 -23 -389 -1 -209 3 -390 8 -403 8 -21
14 -23 86 -23 43 0 85 5 93 10 12 8 15 45 16 222 1 117 2 215 3 218 1 3 30
-48 64 -113 35 -64 68 -122 74 -128 18 -18 104 -12 124 8 9 10 40 63 69 118
28 55 55 104 60 109 4 4 8 -90 8 -209 0 -173 2 -219 13 -226 21 -13 163 -11
177 3 16 16 17 794 1 804 -19 12 -157 8 -173 -5 -8 -7 -59 -93 -113 -191 -54
-99 -101 -179 -105 -180 -4 0 -50 78 -103 173 -52 96 -101 182 -109 192 -10
14 -28 18 -81 19 -38 0 -78 -4 -89 -9z"/>
<path d="M5755 3620 c-16 -18 -27 -45 -181 -467 -63 -173 -111 -319 -108 -328
5 -13 23 -16 99 -14 l93 2 16 36 c8 20 21 52 29 71 l14 35 153 0 154 0 24 -60
c13 -33 29 -66 34 -72 11 -14 152 -19 182 -7 27 10 43 -42 -171 539 -48 132
-93 248 -99 259 -9 16 -25 18 -118 20 -85 1 -110 -2 -121 -14z m215 -484 c0
-8 -29 -12 -100 -11 -55 0 -100 4 -100 8 0 8 69 207 92 267 9 22 15 9 59 -113
27 -77 49 -144 49 -151z"/>
</g>
</svg>
